<svg width="1600" height="620" viewBox="0 0 1600 620" fill="none" xmlns="http://www.w3.org/2000/svg">
  <rect width="1600" height="620" rx="44" fill="#070A12"/>
  <rect width="1600" height="620" rx="44" fill="url(#paint0_radial)" fill-opacity="0.85"/>
  <rect x="98" y="82" width="1404" height="456" rx="32" fill="#0F172A" stroke="#243047" stroke-width="2"/>
  <rect x="98" y="82" width="1404" height="58" rx="32" fill="#111827"/>
  <circle cx="136" cy="111" r="8" fill="#F87171"/>
  <circle cx="164" cy="111" r="8" fill="#FBBF24"/>
  <circle cx="192" cy="111" r="8" fill="#34D399"/>
  <rect x="132" y="178" width="872" height="294" rx="24" fill="#020617" stroke="#334155" stroke-width="2"/>
  <path d="M188 407C267 318 340 354 408 280C483 198 561 272 640 222C708 179 794 184 948 294" stroke="#38BDF8" stroke-width="10" stroke-linecap="round"/>
  <circle cx="640" cy="222" r="24" fill="#38BDF8"/>
  <circle cx="640" cy="222" r="52" stroke="#38BDF8" stroke-opacity="0.28" stroke-width="3"/>
  <rect x="1050" y="178" width="318" height="54" rx="18" fill="#1E293B"/>
  <rect x="1082" y="196" width="180" height="18" rx="9" fill="#CBD5E1"/>
  <rect x="1050" y="256" width="392" height="54" rx="18" fill="#1E293B"/>
  <rect x="1082" y="274" width="260" height="18" rx="9" fill="#94A3B8"/>
  <rect x="1050" y="334" width="286" height="54" rx="18" fill="#1E293B"/>
  <rect x="1082" y="352" width="170" height="18" rx="9" fill="#94A3B8"/>
  <rect x="132" y="492" width="1310" height="18" rx="9" fill="#1E293B"/>
  <rect x="220" y="492" width="510" height="18" rx="9" fill="url(#paint1_linear)"/>
  <path d="M1180 416L1255 492L1270 450L1315 438L1180 416Z" fill="#F8FAFC"/>
  <path d="M1255 492L1230 467" stroke="#0F172A" stroke-width="14" stroke-linecap="round"/>
  <text x="800" y="360" fill="#F8FAFC" font-family="Inter, ui-sans-serif, system-ui, -apple-system, BlinkMacSystemFont, 'Segoe UI', sans-serif" font-size="86" font-weight="800" text-anchor="middle">Focus Recorder</text>
  <text x="800" y="420" fill="#CBD5E1" font-family="Inter, ui-sans-serif, system-ui, -apple-system, BlinkMacSystemFont, 'Segoe UI', sans-serif" font-size="32" font-weight="500" text-anchor="middle">Native capture. Smooth cursor. Cinematic zooms.</text>
  <defs>
    <radialGradient id="paint0_radial" cx="0" cy="0" r="1" gradientUnits="userSpaceOnUse" gradientTransform="translate(820 278) rotate(90) scale(510 930)">
      <stop stop-color="#2563EB" stop-opacity="0.48"/>
      <stop offset="0.46" stop-color="#7C3AED" stop-opacity="0.2"/>
      <stop offset="1" stop-color="#020617" stop-opacity="0"/>
    </radialGradient>
    <linearGradient id="paint1_linear" x1="220" y1="501" x2="730" y2="501" gradientUnits="userSpaceOnUse">
      <stop stop-color="#38BDF8"/>
      <stop offset="1" stop-color="#A78BFA"/>
    </linearGradient>
  </defs>
</svg>
