<svg width="1600" height="360" viewBox="0 0 1600 360" fill="none" xmlns="http://www.w3.org/2000/svg">
  <rect width="1600" height="360" rx="36" fill="#0B1020"/>
  <rect x="72" y="72" width="376" height="216" rx="28" fill="#111827" stroke="#334155" stroke-width="2"/>
  <rect x="612" y="72" width="376" height="216" rx="28" fill="#111827" stroke="#334155" stroke-width="2"/>
  <rect x="1152" y="72" width="376" height="216" rx="28" fill="#111827" stroke="#334155" stroke-width="2"/>
  <circle cx="260" cy="134" r="34" fill="#0EA5E9" fill-opacity="0.18"/>
  <path d="M241 150V119L292 134L241 150Z" fill="#38BDF8"/>
  <circle cx="800" cy="134" r="34" fill="#8B5CF6" fill-opacity="0.18"/>
  <path d="M774 144L795 109L826 144H774Z" fill="#A78BFA"/>
  <circle cx="1340" cy="134" r="34" fill="#22C55E" fill-opacity="0.18"/>
  <path d="M1318 137L1333 152L1365 116" stroke="#4ADE80" stroke-width="12" stroke-linecap="round" stroke-linejoin="round"/>
  <text x="260" y="204" fill="#F8FAFC" font-family="Inter, ui-sans-serif, system-ui, -apple-system, BlinkMacSystemFont, 'Segoe UI', sans-serif" font-size="34" font-weight="750" text-anchor="middle">Record</text>
  <text x="260" y="244" fill="#CBD5E1" font-family="Inter, ui-sans-serif, system-ui, -apple-system, BlinkMacSystemFont, 'Segoe UI', sans-serif" font-size="22" font-weight="500" text-anchor="middle">Display, window, or region</text>
  <text x="800" y="204" fill="#F8FAFC" font-family="Inter, ui-sans-serif, system-ui, -apple-system, BlinkMacSystemFont, 'Segoe UI', sans-serif" font-size="34" font-weight="750" text-anchor="middle">Edit</text>
  <text x="800" y="244" fill="#CBD5E1" font-family="Inter, ui-sans-serif, system-ui, -apple-system, BlinkMacSystemFont, 'Segoe UI', sans-serif" font-size="22" font-weight="500" text-anchor="middle">Zooms and cursor timeline</text>
  <text x="1340" y="204" fill="#F8FAFC" font-family="Inter, ui-sans-serif, system-ui, -apple-system, BlinkMacSystemFont, 'Segoe UI', sans-serif" font-size="34" font-weight="750" text-anchor="middle">Export</text>
  <text x="1340" y="244" fill="#CBD5E1" font-family="Inter, ui-sans-serif, system-ui, -apple-system, BlinkMacSystemFont, 'Segoe UI', sans-serif" font-size="22" font-weight="500" text-anchor="middle">Rendered cinematic output</text>
  <path d="M488 180H572" stroke="#475569" stroke-width="6" stroke-linecap="round"/>
  <path d="M548 156L572 180L548 204" stroke="#475569" stroke-width="6" stroke-linecap="round" stroke-linejoin="round"/>
  <path d="M1028 180H1112" stroke="#475569" stroke-width="6" stroke-linecap="round"/>
  <path d="M1088 156L1112 180L1088 204" stroke="#475569" stroke-width="6" stroke-linecap="round" stroke-linejoin="round"/>
</svg>
